<svg width="600" height="400" xmlns="http://www.w3.org/2000/svg" xmlns:xlink="http://www.w3.org/1999/xlink">

  <!-- Dark brand background -->
  <rect width="600" height="400" fill="#0f172a"/>

  <!-- Inline Nine logo (transparent bg, centered) -->
  <svg x="75" y="10" width="450" height="340">
    <svg xmlns="http://www.w3.org/2000/svg" xmlns:xlink="http://www.w3.org/1999/xlink" version="1.0" x="0" y="0" width="2400" height="2400" viewBox="80.75 35.75 178.5 178.5" preserveAspectRatio="xMidYMid meet" color-interpolation-filters="sRGB"><g><defs><linearGradient id="92" x1="0%" y1="0%" x2="100%" y2="0%"><stop offset="0%" stop-color="#fa71cd"></stop> <stop offset="100%" stop-color="#9b59b6"></stop></linearGradient><linearGradient id="93" x1="0%" y1="0%" x2="100%" y2="0%"><stop offset="0%" stop-color="#f9d423"></stop> <stop offset="100%" stop-color="#f83600"></stop></linearGradient><linearGradient id="94" x1="0%" y1="0%" x2="100%" y2="0%"><stop offset="0%" stop-color="#0064d2"></stop> <stop offset="100%" stop-color="#1cb0f6"></stop></linearGradient><linearGradient id="95" x1="0%" y1="0%" x2="100%" y2="0%"><stop offset="0%" stop-color="#f00978"></stop> <stop offset="100%" stop-color="#3f51b1"></stop></linearGradient><linearGradient id="96" x1="0%" y1="0%" x2="100%" y2="0%"><stop offset="0%" stop-color="#7873f5"></stop> <stop offset="100%" stop-color="#ec77ab"></stop></linearGradient><linearGradient id="97" x1="0%" y1="0%" x2="100%" y2="0%"><stop offset="0%" stop-color="#f9d423"></stop> <stop offset="100%" stop-color="#e14fad"></stop></linearGradient><linearGradient id="98" x1="0%" y1="0%" x2="100%" y2="0%"><stop offset="0%" stop-color="#009efd"></stop> <stop offset="100%" stop-color="#2af598"></stop></linearGradient><linearGradient id="99" x1="0%" y1="0%" x2="100%" y2="0%"><stop offset="0%" stop-color="#ffcc00"></stop> <stop offset="100%" stop-color="#00b140"></stop></linearGradient><linearGradient id="100" x1="0%" y1="0%" x2="100%" y2="0%"><stop offset="0%" stop-color="#d51007"></stop> <stop offset="100%" stop-color="#ff8177"></stop></linearGradient><linearGradient id="102" x1="0%" y1="0%" x2="100%" y2="0%"><stop offset="0%" stop-color="#a2b6df"></stop> <stop offset="100%" stop-color="#0c3483"></stop></linearGradient><linearGradient id="103" x1="0%" y1="0%" x2="100%" y2="0%"><stop offset="0%" stop-color="#7ac5d8"></stop> <stop offset="100%" stop-color="#eea2a2"></stop></linearGradient><linearGradient id="104" x1="0%" y1="0%" x2="100%" y2="0%"><stop offset="0%" stop-color="#00ecbc"></stop> <stop offset="100%" stop-color="#007adf"></stop></linearGradient><linearGradient id="105" x1="0%" y1="0%" x2="100%" y2="0%"><stop offset="0%" stop-color="#b88746"></stop> <stop offset="100%" stop-color="#fdf5a6"></stop></linearGradient></defs><g fill="#0F172A" class="j-b-g-c iconbgsvg" transform="translate(82.5,37.5)"><g transform="translate(0,0)"><g><rect fill="#0F172A" fill-opacity="0" stroke-width="2" x="0" y="0" width="175" height="175" class="image-rect"></rect> <svg filter="url(#colors2242093417)" x="0" y="0" width="175" height="175" filtersec="colorsf133097300" class="image-svg-container primary" style="overflow: visible;"><svg xmlns="http://www.w3.org/2000/svg" viewBox="0 0 65 65" style="overflow: visible;"><g transform="scale(1, 1) skewX(0)"><path d="M65 0v65H0V0h65zm-4 4H4v57h57V4z" fill="#000" fill-rule="nonzero"></path></g></svg></svg> <defs><filter id="colors2242093417"><feColorMatrix type="matrix" values="0 0 0 0 0.05859375  0 0 0 0 0.08984375  0 0 0 0 0.1640625  0 0 0 1 0" class="icon-feColorMatrix "></feColorMatrix></filter> <filter id="colorsf133097300"><feColorMatrix type="matrix" values="0 0 0 0 0.99609375  0 0 0 0 0.99609375  0 0 0 0 0.99609375  0 0 0 1 0" class="icon-fecolormatrix"></feColorMatrix></filter> <filter id="colorsb6207981315"><feColorMatrix type="matrix" values="0 0 0 0 0  0 0 0 0 0  0 0 0 0 0  0 0 0 1 0" class="icon-fecolormatrix"></feColorMatrix></filter></defs></g></g> <g hollow-target="textRect" transform="translate(42.58169937133789,42.163291931152344)"><g class="iconsvg-imagesvg" transform="translate(0,0)"><g> <svg filter="url(#colors8454737425)" x="0" y="0" width="60" height="31.87217134479315" filtersec="colorsf9571680744" class="image-svg-svg primary" style="overflow: visible;"><svg xmlns="http://www.w3.org/2000/svg" viewBox="7.176799774169922 27.423830032348633 85 45.15234375" x="0px" y="0px"><defs></defs><circle cx="10.5709" cy="31.67263" r="0.64369"></circle><circle cx="18.28832" cy="31.67263" r="0.64367"></circle><circle cx="10.66913" cy="38.38299" r="0.64369"></circle><circle cx="18.38657" cy="38.38299" r="0.64369"></circle><path d="M8.16377,71.59344H20.33853V29.24925H8.16377V71.59344Zm10.2228-32.42637a0.78408,0.78408,0,1,1,.78408-0.78408A0.785,0.785,0,0,1,18.38657,39.16707Zm-0.09823-8.27852a0.78408,0.78408,0,1,1-.78408.78408A0.78494,0.78494,0,0,1,18.28834,30.88855Zm-7.6192,8.27852a0.78408,0.78408,0,1,1,.78408-0.78408A0.785,0.785,0,0,1,10.66913,39.16707ZM10.5709,30.88855a0.78408,0.78408,0,1,1-.78408.78408A0.785,0.785,0,0,1,10.5709,30.88855Z"></path><polygon points="7.61 28.267 21.677 28.267 21.677 39.636 91.756 39.636 91.756 27.845 7.61 27.845 7.61 28.267"></polygon><rect x="20.47892" y="29.24925" width="0.21518" height="42.34419"></rect><path d="M7.1768,27.42383L7.181,72.57617h14.4958V40.05712h70.5V27.42383h-85ZM20.33853,71.59344H8.16377V29.24925H20.33853V71.59344Zm0.35557,0H20.47892V29.24925H20.6941V71.59344ZM91.75563,39.636H21.67683V28.26651H7.61V27.845H91.75563V39.636Z"></path><path d="M10.5709,32.4567a0.78408,0.78408,0,1,0-.78408-0.78408A0.785,0.785,0,0,0,10.5709,32.4567Zm0-1.42776a0.64369,0.64369,0,1,1-.64369.64369A0.64438,0.64438,0,0,1,10.5709,31.02894Z"></path><path d="M18.28834,32.4567a0.78408,0.78408,0,1,0-.78408-0.78408A0.78494,0.78494,0,0,0,18.28834,32.4567Zm0-1.42776a0.64369,0.64369,0,1,1-.64369.64369A0.64437,0.64437,0,0,1,18.28834,31.02894Z"></path><path d="M10.66913,37.59892a0.78408,0.78408,0,1,0,.78408.78408A0.785,0.785,0,0,0,10.66913,37.59892Zm0,1.42776a0.64369,0.64369,0,1,1,.64369-0.64369A0.64438,0.64438,0,0,1,10.66913,39.02668Z"></path><path d="M18.38657,37.59892a0.78408,0.78408,0,1,0,.78408.78408A0.785,0.785,0,0,0,18.38657,37.59892Zm0,1.42776a0.64369,0.64369,0,1,1,.64369-0.64369A0.64438,0.64438,0,0,1,18.38657,39.02668Z"></path></svg></svg> <defs><filter id="colors8454737425"><feColorMatrix type="matrix" values="0 0 0 0 0.05859375  0 0 0 0 0.08984375  0 0 0 0 0.1640625  0 0 0 1 0" class="icon-fecolormatrix"></feColorMatrix></filter> <filter id="colorsf9571680744"><feColorMatrix type="matrix" values="0 0 0 0 0.99609375  0 0 0 0 0.99609375  0 0 0 0 0.99609375  0 0 0 1 0" class="icon-fecolormatrix"></feColorMatrix></filter> <filter id="colorsb1139938824"><feColorMatrix type="matrix" values="0 0 0 0 0  0 0 0 0 0  0 0 0 0 0  0 0 0 1 0" class="icon-fecolormatrix"></feColorMatrix></filter></defs></g></g> <g transform="translate(0.16319847106933594,37.87216758728027)"><g fill-rule="" class="tp-name iconsvg-namesvg" transform="translate(0,0)"><g transform="scale(1.2400000000000002)"><g><path d="M2.2-19.76L2.2 0 4.16 0 4.16-11C4.16-15.08 7-18.16 11.08-18.2 15.36-18.24 18.12-15.84 18.12-11.36L18.12 0 20.08 0 20.08-11.4C20.08-16.88 16.44-20.12 11.16-20.12 8.4-20.08 5.64-18.96 4.12-16.24L4.12-19.76ZM27.16-19.84L27.16 0 25.2 0 25.2-19.84ZM24.64-26.2C24.64-24.12 27.8-24.12 27.8-26.2 27.8-28.28 24.64-28.28 24.64-26.2ZM32.76-19.76L32.76 0 34.72 0 34.72-11C34.72-15.08 37.56-18.16 41.64-18.2 45.92-18.24 48.68-15.84 48.68-11.36L48.68 0 50.64 0 50.64-11.4C50.64-16.88 47-20.12 41.72-20.12 38.96-20.08 36.2-18.96 34.68-16.24L34.68-19.76ZM64.68 0.28C67.84 0.28 71.28-1 73.2-3.52L71.8-4.64C70.32-2.68 67.28-1.64 64.68-1.64 60.6-1.64 57.04-4.32 56.64-8.96L74.44-8.96C75.2-16.68 70.24-20.08 64.68-20.08 59.12-20.08 54.64-15.8 54.64-9.88 54.64-3.6 59.12 0.28 64.68 0.28ZM56.64-10.68C57.08-15.52 60.6-18.28 64.68-18.28 69.44-18.28 72.64-15.56 72.68-10.68Z" transform="translate(-2.200000047683716, 27.760000228881836)"></path></g> </g></g> <g fill-rule="" class="tp-slogan iconsvg-slogansvg" fill="#0F172A" transform="translate(14.477035522460938,40.76960372924805)"> <g transform="scale(1, 1)"><g transform="scale(1.2200000000000002)"><path d="M0.90 0L0.90-5.35L1.65-5.35L1.73-4.58L1.76-4.58Q2.15-4.96 2.57-5.22Q2.99-5.48 3.55-5.48L3.55-5.48Q4.40-5.48 4.79-4.95Q5.18-4.42 5.18-3.39L5.18-3.39L5.18 0L4.28 0L4.28-3.27Q4.28-4.03 4.04-4.36Q3.79-4.70 3.27-4.70L3.27-4.70Q2.85-4.70 2.53-4.49Q2.21-4.28 1.80-3.87L1.80-3.87L1.80 0L0.90 0ZM7.38-6.45L7.38-6.45Q7.12-6.45 6.94-6.61Q6.75-6.78 6.75-7.03L6.75-7.03Q6.75-7.29 6.94-7.45Q7.12-7.61 7.38-7.61L7.38-7.61Q7.64-7.61 7.83-7.45Q8.01-7.29 8.01-7.03L8.01-7.03Q8.01-6.78 7.83-6.61Q7.64-6.45 7.38-6.45ZM6.92 0L6.92-5.35L7.82-5.35L7.82 0L6.92 0ZM9.62 0L9.62-5.35L10.37-5.35L10.45-4.58L10.48-4.58Q10.87-4.96 11.29-5.22Q11.71-5.48 12.28-5.48L12.28-5.48Q13.12-5.48 13.51-4.95Q13.90-4.42 13.90-3.39L13.90-3.39L13.90 0L13.00 0L13.00-3.27Q13.00-4.03 12.76-4.36Q12.52-4.70 11.99-4.70L11.99-4.70Q11.57-4.70 11.25-4.49Q10.93-4.28 10.53-3.87L10.53-3.87L10.53 0L9.62 0ZM15.25-2.66L15.25-2.66Q15.25-3.32 15.45-3.84Q15.65-4.37 15.99-4.73Q16.32-5.09 16.75-5.29Q17.18-5.48 17.64-5.48L17.64-5.48Q18.15-5.48 18.55-5.30Q18.95-5.13 19.22-4.80Q19.49-4.47 19.63-4.00Q19.78-3.54 19.78-2.97L19.78-2.97Q19.78-2.67 19.74-2.47L19.74-2.47L16.14-2.47Q16.19-1.61 16.67-1.10Q17.15-0.59 17.92-0.59L17.92-0.59Q18.30-0.59 18.63-0.71Q18.95-0.82 19.25-1.01L19.25-1.01L19.57-0.42Q19.22-0.20 18.79-0.03Q18.36 0.13 17.81 0.13L17.81 0.13Q17.27 0.13 16.80-0.06Q16.33-0.25 15.99-0.61Q15.64-0.97 15.44-1.48Q15.25-2.00 15.25-2.66ZM16.13-3.07L18.99-3.07Q18.99-3.89 18.64-4.33Q18.29-4.76 17.67-4.76L17.67-4.76Q17.38-4.76 17.12-4.65Q16.86-4.53 16.65-4.32Q16.44-4.10 16.31-3.79Q16.17-3.48 16.13-3.07L16.13-3.07ZM20.68-1.39L20.68-1.39Q20.68-2.27 21.47-2.73Q22.25-3.20 23.97-3.39L23.97-3.39Q23.97-3.64 23.92-3.88Q23.87-4.13 23.74-4.31Q23.62-4.50 23.41-4.61Q23.20-4.73 22.87-4.73L22.87-4.73Q22.40-4.73 21.99-4.55Q21.59-4.38 21.27-4.16L21.27-4.16L20.91-4.79Q21.28-5.03 21.82-5.25Q22.36-5.48 23.01-5.48L23.01-5.48Q23.99-5.48 24.43-4.88Q24.87-4.28 24.87-3.28L24.87-3.28L24.87 0L24.12 0L24.05-0.64L24.02-0.64Q23.64-0.32 23.19-0.09Q22.75 0.13 22.25 0.13L22.25 0.13Q21.57 0.13 21.13-0.26Q20.68-0.66 20.68-1.39ZM21.57-1.45L21.57-1.45Q21.57-0.99 21.84-0.79Q22.11-0.59 22.51-0.59L22.51-0.59Q22.89-0.59 23.24-0.78Q23.58-0.96 23.97-1.31L23.97-1.31L23.97-2.79Q23.30-2.71 22.84-2.58Q22.37-2.46 22.09-2.30Q21.81-2.13 21.69-1.92Q21.57-1.70 21.57-1.45ZM27.46-0.48L27.48 0.45L27.48 2.25L26.58 2.25L26.58-5.35L27.32-5.35L27.40-4.73L27.43-4.73Q27.80-5.04 28.23-5.26Q28.67-5.48 29.14-5.48L29.14-5.48Q29.66-5.48 30.05-5.29Q30.45-5.09 30.71-4.74Q30.98-4.38 31.11-3.88Q31.25-3.38 31.25-2.75L31.25-2.75Q31.25-2.07 31.06-1.53Q30.88-1.00 30.56-0.63Q30.24-0.25 29.82-0.06Q29.40 0.13 28.94 0.13L28.94 0.13Q28.57 0.13 28.20-0.03Q27.83-0.20 27.46-0.48L27.46-0.48ZM27.48-3.99L27.48-1.19Q27.84-0.88 28.18-0.75Q28.52-0.63 28.79-0.63L28.79-0.63Q29.12-0.63 29.40-0.78Q29.68-0.92 29.88-1.19Q30.09-1.46 30.20-1.86Q30.32-2.25 30.32-2.75L30.32-2.75Q30.32-3.19 30.24-3.55Q30.16-3.92 29.99-4.17Q29.82-4.43 29.55-4.58Q29.28-4.72 28.91-4.72L28.91-4.72Q28.57-4.72 28.22-4.53Q27.87-4.34 27.48-3.99L27.48-3.99ZM33.56-0.48L33.58 0.45L33.58 2.25L32.68 2.25L32.68-5.35L33.43-5.35L33.51-4.73L33.54-4.73Q33.90-5.04 34.34-5.26Q34.77-5.48 35.24-5.48L35.24-5.48Q35.76-5.48 36.16-5.29Q36.55-5.09 36.82-4.74Q37.08-4.38 37.22-3.88Q37.36-3.38 37.36-2.75L37.36-2.75Q37.36-2.07 37.17-1.53Q36.98-1.00 36.66-0.63Q36.34-0.25 35.93-0.06Q35.51 0.13 35.05 0.13L35.05 0.13Q34.67 0.13 34.30-0.03Q33.94-0.20 33.56-0.48L33.56-0.48ZM33.58-3.99L33.58-1.19Q33.95-0.88 34.29-0.75Q34.63-0.63 34.89-0.63L34.89-0.63Q35.22-0.63 35.50-0.78Q35.78-0.92 35.99-1.19Q36.19-1.46 36.31-1.86Q36.42-2.25 36.42-2.75L36.42-2.75Q36.42-3.19 36.34-3.55Q36.27-3.92 36.10-4.17Q35.93-4.43 35.66-4.58Q35.39-4.72 35.01-4.72L35.01-4.72Q34.67-4.72 34.33-4.53Q33.98-4.34 33.58-3.99L33.58-3.99ZM38.49-0.55L38.49-0.55Q38.49-0.87 38.68-1.06Q38.87-1.25 39.15-1.25L39.15-1.25Q39.41-1.25 39.61-1.06Q39.80-0.87 39.80-0.55L39.80-0.55Q39.80-0.25 39.61-0.06Q39.41 0.13 39.15 0.13L39.15 0.13Q38.87 0.13 38.68-0.06Q38.49-0.25 38.49-0.55ZM40.93-2.66L40.93-2.66Q40.93-3.33 41.14-3.86Q41.35-4.38 41.70-4.74Q42.05-5.10 42.52-5.29Q42.99-5.48 43.50-5.48L43.50-5.48Q44.03-5.48 44.41-5.29Q44.79-5.09 45.07-4.84L45.07-4.84L44.62-4.26Q44.37-4.47 44.12-4.60Q43.86-4.73 43.54-4.73L43.54-4.73Q43.17-4.73 42.87-4.58Q42.56-4.43 42.34-4.16Q42.12-3.88 41.99-3.50Q41.87-3.12 41.87-2.66L41.87-2.66Q41.87-2.20 41.99-1.83Q42.11-1.45 42.32-1.18Q42.54-0.91 42.84-0.76Q43.15-0.62 43.52-0.62L43.52-0.62Q43.90-0.62 44.21-0.78Q44.53-0.93 44.77-1.16L44.77-1.16L45.18-0.56Q44.81-0.24 44.37-0.05Q43.92 0.13 43.44 0.13L43.44 0.13Q42.91 0.13 42.45-0.05Q41.99-0.24 41.65-0.60Q41.32-0.96 41.12-1.48Q40.93-2.00 40.93-2.66ZM45.72-2.66L45.72-2.66Q45.72-3.33 45.92-3.86Q46.12-4.38 46.46-4.74Q46.80-5.10 47.25-5.29Q47.70-5.48 48.19-5.48L48.19-5.48Q48.69-5.48 49.13-5.29Q49.58-5.10 49.92-4.74Q50.26-4.38 50.46-3.86Q50.67-3.33 50.67-2.66L50.67-2.66Q50.67-2.00 50.46-1.48Q50.26-0.96 49.92-0.60Q49.58-0.24 49.13-0.05Q48.69 0.13 48.19 0.13L48.19 0.13Q47.70 0.13 47.25-0.05Q46.80-0.24 46.46-0.60Q46.12-0.96 45.92-1.48Q45.72-2.00 45.72-2.66ZM46.65-2.66L46.65-2.66Q46.65-2.20 46.76-1.83Q46.87-1.45 47.07-1.18Q47.28-0.91 47.56-0.76Q47.85-0.62 48.19-0.62L48.19-0.62Q48.53-0.62 48.82-0.76Q49.10-0.91 49.31-1.18Q49.51-1.45 49.62-1.83Q49.73-2.20 49.73-2.66L49.73-2.66Q49.73-3.12 49.62-3.50Q49.51-3.88 49.31-4.16Q49.10-4.43 48.82-4.58Q48.53-4.73 48.19-4.73L48.19-4.73Q47.85-4.73 47.56-4.58Q47.28-4.43 47.07-4.16Q46.87-3.88 46.76-3.50Q46.65-3.12 46.65-2.66Z" transform="translate(-0.9019999999999999, 7.611999999999999)"></path></g></g></g></g></g></g><defs><filter id="effc0f56-d272-48f0-80bc-0191417b309a"> <feColorMatrix type="matrix" values="0 0 0 0 0  0 0 0 0 0  0 0 0 0 0  0 0 0 1 0"></feColorMatrix> </filter><filter id="7c44b7d9-6b6f-4673-b9fc-36e4fd6b95ff"> <feColorMatrix type="matrix" values="0 0 0 0 0.99609375  0 0 0 0 0.99609375  0 0 0 0 0.99609375  0 0 0 1 0"></feColorMatrix> </filter></defs><mask id="391d522a-5e66-49f3-b542-7ce280ebc37e"><g fill="#0F172A" class="j-b-g-c iconbgsvg"><g transform="translate(0,0)"><g><rect fill="#0F172A" fill-opacity="0" stroke-width="2" x="0" y="0" width="175" height="175" class="image-rect" stroke="#000"></rect> <svg filter="url(#7c44b7d9-6b6f-4673-b9fc-36e4fd6b95ff)" x="0" y="0" width="175" height="175" filtersec="colorsf133097300" class="image-svg-container primary" style="overflow: visible;"><svg xmlns="http://www.w3.org/2000/svg" viewBox="0 0 65 65" style="overflow: visible;"><g transform="scale(1, 1) skewX(0)"><path d="M65 0v65H0V0h65zm-4 4H4v57h57V4z" fill="#000" fill-rule="nonzero"></path></g></svg></svg> <defs><filter id="colors2242093417"><feColorMatrix type="matrix" values="0 0 0 0 0.05859375  0 0 0 0 0.08984375  0 0 0 0 0.1640625  0 0 0 1 0" class="icon-fecolormatrix"></feColorMatrix></filter> <filter id="colorsf133097300"><feColorMatrix type="matrix" values="0 0 0 0 0.99609375  0 0 0 0 0.99609375  0 0 0 0 0.99609375  0 0 0 1 0" class="icon-fecolormatrix"></feColorMatrix></filter> <filter id="colorsb6207981315"><feColorMatrix type="matrix" values="0 0 0 0 0  0 0 0 0 0  0 0 0 0 0  0 0 0 1 0" class="icon-fecolormatrix"></feColorMatrix></filter></defs></g></g> <g hollow-target="textRect" transform="translate(42.58169937133789,42.163291931152344)"><g class="iconsvg-imagesvg" transform="translate(0,0)"><g> <svg filter="url(#colors8454737425)" x="0" y="0" width="60" height="31.87217134479315" filtersec="colorsf9571680744" class="image-svg-svg primary" style="overflow: visible;"><svg xmlns="http://www.w3.org/2000/svg" viewBox="7.176799774169922 27.423830032348633 85 45.15234375" x="0px" y="0px" style="overflow: visible;"><defs></defs><circle cx="10.5709" cy="31.67263" r="0.64369"></circle><circle cx="18.28832" cy="31.67263" r="0.64367"></circle><circle cx="10.66913" cy="38.38299" r="0.64369"></circle><circle cx="18.38657" cy="38.38299" r="0.64369"></circle><path d="M8.16377,71.59344H20.33853V29.24925H8.16377V71.59344Zm10.2228-32.42637a0.78408,0.78408,0,1,1,.78408-0.78408A0.785,0.785,0,0,1,18.38657,39.16707Zm-0.09823-8.27852a0.78408,0.78408,0,1,1-.78408.78408A0.78494,0.78494,0,0,1,18.28834,30.88855Zm-7.6192,8.27852a0.78408,0.78408,0,1,1,.78408-0.78408A0.785,0.785,0,0,1,10.66913,39.16707ZM10.5709,30.88855a0.78408,0.78408,0,1,1-.78408.78408A0.785,0.785,0,0,1,10.5709,30.88855Z"></path><polygon points="7.61 28.267 21.677 28.267 21.677 39.636 91.756 39.636 91.756 27.845 7.61 27.845 7.61 28.267"></polygon><rect x="20.47892" y="29.24925" width="0.21518" height="42.34419"></rect><path d="M7.1768,27.42383L7.181,72.57617h14.4958V40.05712h70.5V27.42383h-85ZM20.33853,71.59344H8.16377V29.24925H20.33853V71.59344Zm0.35557,0H20.47892V29.24925H20.6941V71.59344ZM91.75563,39.636H21.67683V28.26651H7.61V27.845H91.75563V39.636Z"></path><path d="M10.5709,32.4567a0.78408,0.78408,0,1,0-.78408-0.78408A0.785,0.785,0,0,0,10.5709,32.4567Zm0-1.42776a0.64369,0.64369,0,1,1-.64369.64369A0.64438,0.64438,0,0,1,10.5709,31.02894Z"></path><path d="M18.28834,32.4567a0.78408,0.78408,0,1,0-.78408-0.78408A0.78494,0.78494,0,0,0,18.28834,32.4567Zm0-1.42776a0.64369,0.64369,0,1,1-.64369.64369A0.64437,0.64437,0,0,1,18.28834,31.02894Z"></path><path d="M10.66913,37.59892a0.78408,0.78408,0,1,0,.78408.78408A0.785,0.785,0,0,0,10.66913,37.59892Zm0,1.42776a0.64369,0.64369,0,1,1,.64369-0.64369A0.64438,0.64438,0,0,1,10.66913,39.02668Z"></path><path d="M18.38657,37.59892a0.78408,0.78408,0,1,0,.78408.78408A0.785,0.785,0,0,0,18.38657,37.59892Zm0,1.42776a0.64369,0.64369,0,1,1,.64369-0.64369A0.64438,0.64438,0,0,1,18.38657,39.02668Z"></path></svg></svg> <defs><filter id="colors8454737425"><feColorMatrix type="matrix" values="0 0 0 0 0.05859375  0 0 0 0 0.08984375  0 0 0 0 0.1640625  0 0 0 1 0" class="icon-fecolormatrix"></feColorMatrix></filter> <filter id="colorsf9571680744"><feColorMatrix type="matrix" values="0 0 0 0 0.99609375  0 0 0 0 0.99609375  0 0 0 0 0.99609375  0 0 0 1 0" class="icon-fecolormatrix"></feColorMatrix></filter> <filter id="colorsb1139938824"><feColorMatrix type="matrix" values="0 0 0 0 0  0 0 0 0 0  0 0 0 0 0  0 0 0 1 0" class="icon-fecolormatrix"></feColorMatrix></filter></defs></g></g> <g transform="translate(0.16319847106933594,37.87216758728027)"><g fill-rule="" class="tp-name iconsvg-namesvg" transform="translate(0,0)"><g transform="scale(1.2400000000000002)"><g><path d="M2.2-19.76L2.2 0 4.16 0 4.16-11C4.16-15.08 7-18.16 11.08-18.2 15.36-18.24 18.12-15.84 18.12-11.36L18.12 0 20.08 0 20.08-11.4C20.08-16.88 16.44-20.12 11.16-20.12 8.4-20.08 5.64-18.96 4.12-16.24L4.12-19.76ZM27.16-19.84L27.16 0 25.2 0 25.2-19.84ZM24.64-26.2C24.64-24.12 27.8-24.12 27.8-26.2 27.8-28.28 24.64-28.28 24.64-26.2ZM32.76-19.76L32.76 0 34.72 0 34.72-11C34.72-15.08 37.56-18.16 41.64-18.2 45.92-18.24 48.68-15.84 48.68-11.36L48.68 0 50.64 0 50.64-11.4C50.64-16.88 47-20.12 41.72-20.12 38.96-20.08 36.2-18.96 34.68-16.24L34.68-19.76ZM64.68 0.28C67.84 0.28 71.28-1 73.2-3.52L71.8-4.64C70.32-2.68 67.28-1.64 64.68-1.64 60.6-1.64 57.04-4.32 56.64-8.96L74.44-8.96C75.2-16.68 70.24-20.08 64.68-20.08 59.12-20.08 54.64-15.8 54.64-9.88 54.64-3.6 59.12 0.28 64.68 0.28ZM56.64-10.68C57.08-15.52 60.6-18.28 64.68-18.28 69.44-18.28 72.64-15.56 72.68-10.68Z" transform="translate(-2.200000047683716, 27.760000228881836)"></path></g> </g></g> <g fill-rule="" class="tp-slogan iconsvg-slogansvg" fill="#0F172A" transform="translate(14.477035522460938,40.76960372924805)"> <g transform="scale(1, 1)"><g transform="scale(1.2200000000000002)"><path d="M0.90 0L0.90-5.35L1.65-5.35L1.73-4.58L1.76-4.58Q2.15-4.96 2.57-5.22Q2.99-5.48 3.55-5.48L3.55-5.48Q4.40-5.48 4.79-4.95Q5.18-4.42 5.18-3.39L5.18-3.39L5.18 0L4.28 0L4.28-3.27Q4.28-4.03 4.04-4.36Q3.79-4.70 3.27-4.70L3.27-4.70Q2.85-4.70 2.53-4.49Q2.21-4.28 1.80-3.87L1.80-3.87L1.80 0L0.90 0ZM7.38-6.45L7.38-6.45Q7.12-6.45 6.94-6.61Q6.75-6.78 6.75-7.03L6.75-7.03Q6.75-7.29 6.94-7.45Q7.12-7.61 7.38-7.61L7.38-7.61Q7.64-7.61 7.83-7.45Q8.01-7.29 8.01-7.03L8.01-7.03Q8.01-6.78 7.83-6.61Q7.64-6.45 7.38-6.45ZM6.92 0L6.92-5.35L7.82-5.35L7.82 0L6.92 0ZM9.62 0L9.62-5.35L10.37-5.35L10.45-4.58L10.48-4.58Q10.87-4.96 11.29-5.22Q11.71-5.48 12.28-5.48L12.28-5.48Q13.12-5.48 13.51-4.95Q13.90-4.42 13.90-3.39L13.90-3.39L13.90 0L13.00 0L13.00-3.27Q13.00-4.03 12.76-4.36Q12.52-4.70 11.99-4.70L11.99-4.70Q11.57-4.70 11.25-4.49Q10.93-4.28 10.53-3.87L10.53-3.87L10.53 0L9.62 0ZM15.25-2.66L15.25-2.66Q15.25-3.32 15.45-3.84Q15.65-4.37 15.99-4.73Q16.32-5.09 16.75-5.29Q17.18-5.48 17.64-5.48L17.64-5.48Q18.15-5.48 18.55-5.30Q18.95-5.13 19.22-4.80Q19.49-4.47 19.63-4.00Q19.78-3.54 19.78-2.97L19.78-2.97Q19.78-2.67 19.74-2.47L19.74-2.47L16.14-2.47Q16.19-1.61 16.67-1.10Q17.15-0.59 17.92-0.59L17.92-0.59Q18.30-0.59 18.63-0.71Q18.95-0.82 19.25-1.01L19.25-1.01L19.57-0.42Q19.22-0.20 18.79-0.03Q18.36 0.13 17.81 0.13L17.81 0.13Q17.27 0.13 16.80-0.06Q16.33-0.25 15.99-0.61Q15.64-0.97 15.44-1.48Q15.25-2.00 15.25-2.66ZM16.13-3.07L18.99-3.07Q18.99-3.89 18.64-4.33Q18.29-4.76 17.67-4.76L17.67-4.76Q17.38-4.76 17.12-4.65Q16.86-4.53 16.65-4.32Q16.44-4.10 16.31-3.79Q16.17-3.48 16.13-3.07L16.13-3.07ZM20.68-1.39L20.68-1.39Q20.68-2.27 21.47-2.73Q22.25-3.20 23.97-3.39L23.97-3.39Q23.97-3.64 23.92-3.88Q23.87-4.13 23.74-4.31Q23.62-4.50 23.41-4.61Q23.20-4.73 22.87-4.73L22.87-4.73Q22.40-4.73 21.99-4.55Q21.59-4.38 21.27-4.16L21.27-4.16L20.91-4.79Q21.28-5.03 21.82-5.25Q22.36-5.48 23.01-5.48L23.01-5.48Q23.99-5.48 24.43-4.88Q24.87-4.28 24.87-3.28L24.87-3.28L24.87 0L24.12 0L24.05-0.64L24.02-0.64Q23.64-0.32 23.19-0.09Q22.75 0.13 22.25 0.13L22.25 0.13Q21.57 0.13 21.13-0.26Q20.68-0.66 20.68-1.39ZM21.57-1.45L21.57-1.45Q21.57-0.99 21.84-0.79Q22.11-0.59 22.51-0.59L22.51-0.59Q22.89-0.59 23.24-0.78Q23.58-0.96 23.97-1.31L23.97-1.31L23.97-2.79Q23.30-2.71 22.84-2.58Q22.37-2.46 22.09-2.30Q21.81-2.13 21.69-1.92Q21.57-1.70 21.57-1.45ZM27.46-0.48L27.48 0.45L27.48 2.25L26.58 2.25L26.58-5.35L27.32-5.35L27.40-4.73L27.43-4.73Q27.80-5.04 28.23-5.26Q28.67-5.48 29.14-5.48L29.14-5.48Q29.66-5.48 30.05-5.29Q30.45-5.09 30.71-4.74Q30.98-4.38 31.11-3.88Q31.25-3.38 31.25-2.75L31.25-2.75Q31.25-2.07 31.06-1.53Q30.88-1.00 30.56-0.63Q30.24-0.25 29.82-0.06Q29.40 0.13 28.94 0.13L28.94 0.13Q28.57 0.13 28.20-0.03Q27.83-0.20 27.46-0.48L27.46-0.48ZM27.48-3.99L27.48-1.19Q27.84-0.88 28.18-0.75Q28.52-0.63 28.79-0.63L28.79-0.63Q29.12-0.63 29.40-0.78Q29.68-0.92 29.88-1.19Q30.09-1.46 30.20-1.86Q30.32-2.25 30.32-2.75L30.32-2.75Q30.32-3.19 30.24-3.55Q30.16-3.92 29.99-4.17Q29.82-4.43 29.55-4.58Q29.28-4.72 28.91-4.72L28.91-4.72Q28.57-4.72 28.22-4.53Q27.87-4.34 27.48-3.99L27.48-3.99ZM33.56-0.48L33.58 0.45L33.58 2.25L32.68 2.25L32.68-5.35L33.43-5.35L33.51-4.73L33.54-4.73Q33.90-5.04 34.34-5.26Q34.77-5.48 35.24-5.48L35.24-5.48Q35.76-5.48 36.16-5.29Q36.55-5.09 36.82-4.74Q37.08-4.38 37.22-3.88Q37.36-3.38 37.36-2.75L37.36-2.75Q37.36-2.07 37.17-1.53Q36.98-1.00 36.66-0.63Q36.34-0.25 35.93-0.06Q35.51 0.13 35.05 0.13L35.05 0.13Q34.67 0.13 34.30-0.03Q33.94-0.20 33.56-0.48L33.56-0.48ZM33.58-3.99L33.58-1.19Q33.95-0.88 34.29-0.75Q34.63-0.63 34.89-0.63L34.89-0.63Q35.22-0.63 35.50-0.78Q35.78-0.92 35.99-1.19Q36.19-1.46 36.31-1.86Q36.42-2.25 36.42-2.75L36.42-2.75Q36.42-3.19 36.34-3.55Q36.27-3.92 36.10-4.17Q35.93-4.43 35.66-4.58Q35.39-4.72 35.01-4.72L35.01-4.72Q34.67-4.72 34.33-4.53Q33.98-4.34 33.58-3.99L33.58-3.99ZM38.49-0.55L38.49-0.55Q38.49-0.87 38.68-1.06Q38.87-1.25 39.15-1.25L39.15-1.25Q39.41-1.25 39.61-1.06Q39.80-0.87 39.80-0.55L39.80-0.55Q39.80-0.25 39.61-0.06Q39.41 0.13 39.15 0.13L39.15 0.13Q38.87 0.13 38.68-0.06Q38.49-0.25 38.49-0.55ZM40.93-2.66L40.93-2.66Q40.93-3.33 41.14-3.86Q41.35-4.38 41.70-4.74Q42.05-5.10 42.52-5.29Q42.99-5.48 43.50-5.48L43.50-5.48Q44.03-5.48 44.41-5.29Q44.79-5.09 45.07-4.84L45.07-4.84L44.62-4.26Q44.37-4.47 44.12-4.60Q43.86-4.73 43.54-4.73L43.54-4.73Q43.17-4.73 42.87-4.58Q42.56-4.43 42.34-4.16Q42.12-3.88 41.99-3.50Q41.87-3.12 41.87-2.66L41.87-2.66Q41.87-2.20 41.99-1.83Q42.11-1.45 42.32-1.18Q42.54-0.91 42.84-0.76Q43.15-0.62 43.52-0.62L43.52-0.62Q43.90-0.62 44.21-0.78Q44.53-0.93 44.77-1.16L44.77-1.16L45.18-0.56Q44.81-0.24 44.37-0.05Q43.92 0.13 43.44 0.13L43.44 0.13Q42.91 0.13 42.45-0.05Q41.99-0.24 41.65-0.60Q41.32-0.96 41.12-1.48Q40.93-2.00 40.93-2.66ZM45.72-2.66L45.72-2.66Q45.72-3.33 45.92-3.86Q46.12-4.38 46.46-4.74Q46.80-5.10 47.25-5.29Q47.70-5.48 48.19-5.48L48.19-5.48Q48.69-5.48 49.13-5.29Q49.58-5.10 49.92-4.74Q50.26-4.38 50.46-3.86Q50.67-3.33 50.67-2.66L50.67-2.66Q50.67-2.00 50.46-1.48Q50.26-0.96 49.92-0.60Q49.58-0.24 49.13-0.05Q48.69 0.13 48.19 0.13L48.19 0.13Q47.70 0.13 47.25-0.05Q46.80-0.24 46.46-0.60Q46.12-0.96 45.92-1.48Q45.72-2.00 45.72-2.66ZM46.65-2.66L46.65-2.66Q46.65-2.20 46.76-1.83Q46.87-1.45 47.07-1.18Q47.28-0.91 47.56-0.76Q47.85-0.62 48.19-0.62L48.19-0.62Q48.53-0.62 48.82-0.76Q49.10-0.91 49.31-1.18Q49.51-1.45 49.62-1.83Q49.73-2.20 49.73-2.66L49.73-2.66Q49.73-3.12 49.62-3.50Q49.51-3.88 49.31-4.16Q49.10-4.43 48.82-4.58Q48.53-4.73 48.19-4.73L48.19-4.73Q47.85-4.73 47.56-4.58Q47.28-4.43 47.07-4.16Q46.87-3.88 46.76-3.50Q46.65-3.12 46.65-2.66Z" transform="translate(-0.9019999999999999, 7.611999999999999)"></path></g></g></g></g></g></g></mask><defs v-gra="od"></defs></g></svg>
  </svg>

  <!-- Loading indicator -->
  <text x="300" y="375" font-family="Arial, sans-serif" font-size="11" fill="#64748b" text-anchor="middle" letter-spacing="3">LOADING</text>

  <circle cx="276" cy="390" r="3.5" fill="#3b82f6">
    <animate attributeName="opacity" values="1;0.2;1" dur="1.5s" repeatCount="indefinite" begin="0s"/>
  </circle>
  <circle cx="300" cy="390" r="3.5" fill="#3b82f6">
    <animate attributeName="opacity" values="1;0.2;1" dur="1.5s" repeatCount="indefinite" begin="0.5s"/>
  </circle>
  <circle cx="324" cy="390" r="3.5" fill="#3b82f6">
    <animate attributeName="opacity" values="1;0.2;1" dur="1.5s" repeatCount="indefinite" begin="1s"/>
  </circle>

</svg>